<svg width="144" height="36" viewBox="0 0 144 36" fill="none" xmlns="http://www.w3.org/2000/svg">
<rect width="144" height="36" fill="#343A40"/>
<path d="M40.9336 21.1426L43.1016 14.4688H44.7305L41.6602 23H40.2246L37.166 14.4688H38.7891L40.9336 21.1426ZM47.2617 23H45.7852V14.4688H47.2617V23ZM54.0703 19.1914H50.5664V21.8164H54.6621V23H49.084V14.4688H54.6211V15.6641H50.5664V18.0195H54.0703V19.1914ZM62.5605 20.8906L63.873 14.4688H65.3438L63.375 23H61.957L60.334 16.7715L58.6758 23H57.252L55.2832 14.4688H56.7539L58.0781 20.8789L59.707 14.4688H60.9492L62.5605 20.8906ZM76.2246 18.957C76.2246 19.793 76.0801 20.5273 75.791 21.1602C75.502 21.7891 75.0879 22.2734 74.5488 22.6133C74.0137 22.9492 73.3965 23.1172 72.6973 23.1172C72.0059 23.1172 71.3887 22.9492 70.8457 22.6133C70.3066 22.2734 69.8887 21.791 69.5918 21.166C69.2988 20.541 69.1504 19.8203 69.1465 19.0039V18.5234C69.1465 17.6914 69.293 16.957 69.5859 16.3203C69.8828 15.6836 70.2988 15.1973 70.834 14.8613C71.373 14.5215 71.9902 14.3516 72.6855 14.3516C73.3809 14.3516 73.9961 14.5195 74.5312 14.8555C75.0703 15.1875 75.4863 15.668 75.7793 16.2969C76.0723 16.9219 76.2207 17.6504 76.2246 18.4824V18.957ZM74.7422 18.5117C74.7422 17.5664 74.5625 16.8418 74.2031 16.3379C73.8477 15.834 73.3418 15.582 72.6855 15.582C72.0449 15.582 71.543 15.834 71.1797 16.3379C70.8203 16.8379 70.6367 17.5469 70.6289 18.4648V18.957C70.6289 19.8945 70.8105 20.6191 71.1738 21.1309C71.541 21.6426 72.0488 21.8984 72.6973 21.8984C73.3535 21.8984 73.8574 21.6484 74.209 21.1484C74.5645 20.6484 74.7422 19.918 74.7422 18.957V18.5117ZM84.4688 23H82.9863L79.1836 16.9473V23H77.7012V14.4688H79.1836L82.998 20.5449V14.4688H84.4688V23ZM95.748 21.8926C95.4395 22.2949 95.0117 22.5996 94.4648 22.8066C93.918 23.0137 93.2969 23.1172 92.6016 23.1172C91.8867 23.1172 91.2539 22.9551 90.7031 22.6309C90.1523 22.3066 89.7266 21.8438 89.4258 21.2422C89.1289 20.6367 88.9746 19.9316 88.9629 19.127V18.459C88.9629 17.1699 89.2715 16.1641 89.8887 15.4414C90.5059 14.7148 91.3672 14.3516 92.4727 14.3516C93.4219 14.3516 94.1758 14.5859 94.7344 15.0547C95.293 15.5234 95.6289 16.1992 95.7422 17.082H94.2891C94.125 16.0547 93.5293 15.541 92.502 15.541C91.8379 15.541 91.332 15.7812 90.9844 16.2617C90.6406 16.7383 90.4629 17.4395 90.4512 18.3652V19.0215C90.4512 19.9434 90.6445 20.6602 91.0312 21.1719C91.4219 21.6797 91.9629 21.9336 92.6543 21.9336C93.4121 21.9336 93.9512 21.7617 94.2715 21.418V19.748H92.5137V18.623H95.748V21.8926ZM98.9414 23H97.4648V14.4688H98.9414V23ZM106.752 15.6641H104.092V23H102.621V15.6641H99.9844V14.4688H106.752V15.6641ZM114.65 23H113.174V19.209H109.359V23H107.877V14.4688H109.359V18.0195H113.174V14.4688H114.65V23ZM122.648 14.4688V20.1699C122.648 21.0762 122.357 21.7949 121.775 22.3262C121.197 22.8535 120.426 23.1172 119.461 23.1172C118.484 23.1172 117.709 22.8574 117.135 22.3379C116.561 21.8145 116.273 21.0898 116.273 20.1641V14.4688H117.75V20.1758C117.75 20.7461 117.895 21.1816 118.184 21.4824C118.473 21.7832 118.898 21.9336 119.461 21.9336C120.602 21.9336 121.172 21.332 121.172 20.1289V14.4688H122.648ZM124.236 23V14.4688H127.16C128.125 14.4688 128.859 14.6621 129.363 15.0488C129.867 15.4355 130.119 16.0117 130.119 16.7773C130.119 17.168 130.014 17.5195 129.803 17.832C129.592 18.1445 129.283 18.3867 128.877 18.5586C129.338 18.6836 129.693 18.9199 129.943 19.2676C130.197 19.6113 130.324 20.0254 130.324 20.5098C130.324 21.3105 130.066 21.9258 129.551 22.3555C129.039 22.7852 128.305 23 127.348 23H124.236ZM125.719 19.1504V21.8164H127.365C127.83 21.8164 128.193 21.7012 128.455 21.4707C128.717 21.2402 128.848 20.9199 128.848 20.5098C128.848 19.623 128.395 19.1699 127.488 19.1504H125.719ZM125.719 18.0605H127.172C127.633 18.0605 127.992 17.957 128.25 17.75C128.512 17.5391 128.643 17.2422 128.643 16.8594C128.643 16.4375 128.521 16.1328 128.279 15.9453C128.041 15.7578 127.668 15.6641 127.16 15.6641H125.719V18.0605Z" fill="white"/>
<g clip-path="url(#clip0)">
<path d="M18.5 7.4375C12.6988 7.4375 8 12.0575 8 17.7555C8 22.3151 11.0082 26.1817 15.1794 27.545C15.7044 27.6421 15.8969 27.3227 15.8969 27.0489C15.8969 26.8039 15.8881 26.1546 15.8837 25.2945C12.963 25.9166 12.347 23.9102 12.347 23.9102C11.8692 22.7194 11.1789 22.4009 11.1789 22.4009C10.2277 21.7612 11.2524 21.7744 11.2524 21.7744C12.3067 21.8461 12.8606 22.8375 12.8606 22.8375C13.7969 24.4151 15.3185 23.9592 15.9188 23.6959C16.0133 23.0282 16.2836 22.5741 16.5838 22.316C14.2519 22.0579 11.801 21.1706 11.801 17.2174C11.801 16.0912 12.2079 15.1707 12.8816 14.4489C12.7635 14.1881 12.4091 13.139 12.9735 11.718C12.9735 11.718 13.8529 11.4415 15.861 12.7759C16.701 12.5466 17.5935 12.4329 18.486 12.4276C19.3785 12.4329 20.271 12.5466 21.111 12.7759C23.106 11.4415 23.9854 11.718 23.9854 11.718C24.5497 13.139 24.1954 14.1881 24.0904 14.4489C24.7598 15.1707 25.1666 16.0912 25.1666 17.2174C25.1666 21.1811 22.7122 22.0535 20.376 22.3072C20.7435 22.617 21.0848 23.2496 21.0848 24.2165C21.0848 25.5972 21.0716 26.7067 21.0716 27.0419C21.0716 27.3122 21.2554 27.6351 21.7935 27.5319C25.9944 26.1774 29 22.3081 29 17.7555C29 12.0575 24.2986 7.4375 18.5 7.4375Z" fill="white"/>
</g>
<defs>
<clipPath id="clip0">
<rect width="21" height="21" fill="white" transform="translate(8 7)"/>
</clipPath>
</defs>
</svg>
