<svg width="24" height="38" viewBox="0 0 24 38" fill="none" xmlns="http://www.w3.org/2000/svg">
<path d="M8.33965 19.008L22.5554 4.79171C22.9468 4.4012 23.1621 3.87909 23.1621 3.32237C23.1621 2.76535 22.9468 2.24354 22.5554 1.85242L21.3097 0.607382C20.9189 0.215642 20.3965 0 19.8398 0C19.283 0 18.7612 0.215642 18.3701 0.607382L1.44405 17.5331C1.05138 17.9255 0.836354 18.4498 0.837899 19.0071C0.836354 19.5669 1.05107 20.0906 1.44405 20.4832L18.3544 37.3926C18.7455 37.7844 19.2673 38 19.8243 38C20.381 38 20.9028 37.7844 21.2943 37.3926L22.5396 36.1476C23.35 35.3372 23.35 34.018 22.5396 33.208L8.33965 19.008Z" fill="#343A40"/>
</svg>
