<svg width="144" height="36" viewBox="0 0 144 36" fill="none" xmlns="http://www.w3.org/2000/svg">
<rect width="144" height="36" fill="#FF2553"/>
<path d="M16.2109 19.8301V23H14.7285V14.4688H17.9922C18.9453 14.4688 19.7012 14.7168 20.2598 15.2129C20.8223 15.709 21.1035 16.3652 21.1035 17.1816C21.1035 18.0176 20.8281 18.668 20.2773 19.1328C19.7305 19.5977 18.9629 19.8301 17.9746 19.8301H16.2109ZM16.2109 18.6406H17.9922C18.5195 18.6406 18.9219 18.5176 19.1992 18.2715C19.4766 18.0215 19.6152 17.6621 19.6152 17.1934C19.6152 16.7324 19.4746 16.3652 19.1934 16.0918C18.9121 15.8145 18.5254 15.6719 18.0332 15.6641H16.2109V18.6406ZM23.8867 21.8164H27.7598V23H22.4043V14.4688H23.8867V21.8164ZM33.7891 21.0137H30.4844L29.793 23H28.252L31.4746 14.4688H32.8047L36.0332 23H34.4863L33.7891 21.0137ZM30.9004 19.8184H33.373L32.1367 16.2793L30.9004 19.8184ZM38.9102 18.5117L40.873 14.4688H42.5137L39.6543 19.8594V23H38.166V19.8594L35.3008 14.4688H36.9473L38.9102 18.5117ZM48.3496 14.4688L50.8105 21.0078L53.2656 14.4688H55.1816V23H53.7051V20.1875L53.8516 16.4258L51.332 23H50.2715L47.7578 16.4316L47.9043 20.1875V23H46.4277V14.4688H48.3496ZM58.5039 23H57.0273V14.4688H58.5039V23ZM67.0938 23H65.6113L61.8086 16.9473V23H60.3262V14.4688H61.8086L65.623 20.5449V14.4688H67.0938V23ZM68.8457 23V14.4688H71.3652C72.1191 14.4688 72.7871 14.6367 73.3691 14.9727C73.9551 15.3086 74.4082 15.7852 74.7285 16.4023C75.0488 17.0195 75.209 17.7266 75.209 18.5234V18.9512C75.209 19.7598 75.0469 20.4707 74.7227 21.084C74.4023 21.6973 73.9434 22.1699 73.3457 22.502C72.752 22.834 72.0703 23 71.3008 23H68.8457ZM70.3281 15.6641V21.8164H71.2949C72.0723 21.8164 72.668 21.5742 73.082 21.0898C73.5 20.6016 73.7129 19.9023 73.7207 18.9922V18.5176C73.7207 17.5918 73.5195 16.8848 73.1172 16.3965C72.7148 15.9082 72.1309 15.6641 71.3652 15.6641H70.3281ZM81.1445 20.8027C81.1445 20.4277 81.0117 20.1387 80.7461 19.9355C80.4844 19.7324 80.0098 19.5273 79.3223 19.3203C78.6348 19.1133 78.0879 18.8828 77.6816 18.6289C76.9043 18.1406 76.5156 17.5039 76.5156 16.7188C76.5156 16.0312 76.7949 15.4648 77.3535 15.0195C77.916 14.5742 78.6445 14.3516 79.5391 14.3516C80.1328 14.3516 80.6621 14.4609 81.127 14.6797C81.5918 14.8984 81.957 15.2109 82.2227 15.6172C82.4883 16.0195 82.6211 16.4668 82.6211 16.959H81.1445C81.1445 16.5137 81.0039 16.166 80.7227 15.916C80.4453 15.6621 80.0469 15.5352 79.5273 15.5352C79.043 15.5352 78.666 15.6387 78.3965 15.8457C78.1309 16.0527 77.998 16.3418 77.998 16.7129C77.998 17.0254 78.1426 17.2871 78.4316 17.498C78.7207 17.7051 79.1973 17.9082 79.8613 18.1074C80.5254 18.3027 81.0586 18.5273 81.4609 18.7812C81.8633 19.0312 82.1582 19.3203 82.3457 19.6484C82.5332 19.9727 82.627 20.3535 82.627 20.791C82.627 21.502 82.3535 22.0684 81.8066 22.4902C81.2637 22.9082 80.5254 23.1172 79.5918 23.1172C78.9746 23.1172 78.4062 23.0039 77.8867 22.7773C77.3711 22.5469 76.9688 22.2305 76.6797 21.8281C76.3945 21.4258 76.252 20.957 76.252 20.4219H77.7344C77.7344 20.9062 77.8945 21.2812 78.2148 21.5469C78.5352 21.8125 78.9941 21.9453 79.5918 21.9453C80.1074 21.9453 80.4941 21.8418 80.752 21.6348C81.0137 21.4238 81.1445 21.1465 81.1445 20.8027ZM90.6191 20.8906L91.9316 14.4688H93.4023L91.4336 23H90.0156L88.3926 16.7715L86.7344 23H85.3105L83.3418 14.4688H84.8125L86.1367 20.8789L87.7656 14.4688H89.0078L90.6191 20.8906ZM99.4727 19.1914H95.9688V21.8164H100.064V23H94.4863V14.4688H100.023V15.6641H95.9688V18.0195H99.4727V19.1914ZM106.258 19.1914H102.754V21.8164H106.85V23H101.271V14.4688H106.809V15.6641H102.754V18.0195H106.258V19.1914ZM109.539 19.8301V23H108.057V14.4688H111.32C112.273 14.4688 113.029 14.7168 113.588 15.2129C114.15 15.709 114.432 16.3652 114.432 17.1816C114.432 18.0176 114.156 18.668 113.605 19.1328C113.059 19.5977 112.291 19.8301 111.303 19.8301H109.539ZM109.539 18.6406H111.32C111.848 18.6406 112.25 18.5176 112.527 18.2715C112.805 18.0215 112.943 17.6621 112.943 17.1934C112.943 16.7324 112.803 16.3652 112.521 16.0918C112.24 15.8145 111.854 15.6719 111.361 15.6641H109.539V18.6406ZM120.719 19.1914H117.215V21.8164H121.311V23H115.732V14.4688H121.27V15.6641H117.215V18.0195H120.719V19.1914ZM125.652 19.7129H124V23H122.518V14.4688H125.518C126.502 14.4688 127.262 14.6895 127.797 15.1309C128.332 15.5723 128.6 16.2109 128.6 17.0469C128.6 17.6172 128.461 18.0957 128.184 18.4824C127.91 18.8652 127.527 19.1602 127.035 19.3672L128.951 22.9238V23H127.363L125.652 19.7129ZM124 18.5234H125.523C126.023 18.5234 126.414 18.3984 126.695 18.1484C126.977 17.8945 127.117 17.5488 127.117 17.1113C127.117 16.6543 126.986 16.3008 126.725 16.0508C126.467 15.8008 126.08 15.6719 125.564 15.6641H124V18.5234Z" fill="white"/>
</svg>
