<svg width="144" height="36" viewBox="0 0 144 36" fill="none" xmlns="http://www.w3.org/2000/svg">
<rect width="144" height="36" fill="#343A40"/>
<path d="M26.5352 19.8301V23H25.0527V14.4688H28.3164C29.2695 14.4688 30.0254 14.7168 30.584 15.2129C31.1465 15.709 31.4277 16.3652 31.4277 17.1816C31.4277 18.0176 31.1523 18.668 30.6016 19.1328C30.0547 19.5977 29.2871 19.8301 28.2988 19.8301H26.5352ZM26.5352 18.6406H28.3164C28.8438 18.6406 29.2461 18.5176 29.5234 18.2715C29.8008 18.0215 29.9395 17.6621 29.9395 17.1934C29.9395 16.7324 29.7988 16.3652 29.5176 16.0918C29.2363 15.8145 28.8496 15.6719 28.3574 15.6641H26.5352V18.6406ZM34.293 23H32.8164V14.4688H34.293V23ZM42.625 20.2227C42.5391 21.1328 42.2031 21.8438 41.6172 22.3555C41.0312 22.8633 40.252 23.1172 39.2793 23.1172C38.5996 23.1172 38 22.957 37.4805 22.6367C36.9648 22.3125 36.5664 21.8535 36.2852 21.2598C36.0039 20.666 35.8574 19.9766 35.8457 19.1914V18.3945C35.8457 17.5898 35.9883 16.8809 36.2734 16.2676C36.5586 15.6543 36.9668 15.1816 37.498 14.8496C38.0332 14.5176 38.6504 14.3516 39.3496 14.3516C40.291 14.3516 41.0488 14.6074 41.623 15.1191C42.1973 15.6309 42.5312 16.3535 42.625 17.2871H41.1484C41.0781 16.6738 40.8984 16.2324 40.6094 15.9629C40.3242 15.6895 39.9043 15.5527 39.3496 15.5527C38.7051 15.5527 38.209 15.7891 37.8613 16.2617C37.5176 16.7305 37.3418 17.4199 37.334 18.3301V19.0859C37.334 20.0078 37.498 20.7109 37.8262 21.1953C38.1582 21.6797 38.6426 21.9219 39.2793 21.9219C39.8613 21.9219 40.2988 21.791 40.5918 21.5293C40.8848 21.2676 41.0703 20.832 41.1484 20.2227H42.625ZM49.9434 15.6641H47.2832V23H45.8125V15.6641H43.1758V14.4688H49.9434V15.6641ZM57.7129 18.957C57.7129 19.793 57.5684 20.5273 57.2793 21.1602C56.9902 21.7891 56.5762 22.2734 56.0371 22.6133C55.502 22.9492 54.8848 23.1172 54.1855 23.1172C53.4941 23.1172 52.877 22.9492 52.334 22.6133C51.7949 22.2734 51.377 21.791 51.0801 21.166C50.7871 20.541 50.6387 19.8203 50.6348 19.0039V18.5234C50.6348 17.6914 50.7812 16.957 51.0742 16.3203C51.3711 15.6836 51.7871 15.1973 52.3223 14.8613C52.8613 14.5215 53.4785 14.3516 54.1738 14.3516C54.8691 14.3516 55.4844 14.5195 56.0195 14.8555C56.5586 15.1875 56.9746 15.668 57.2676 16.2969C57.5605 16.9219 57.709 17.6504 57.7129 18.4824V18.957ZM56.2305 18.5117C56.2305 17.5664 56.0508 16.8418 55.6914 16.3379C55.3359 15.834 54.8301 15.582 54.1738 15.582C53.5332 15.582 53.0312 15.834 52.668 16.3379C52.3086 16.8379 52.125 17.5469 52.1172 18.4648V18.957C52.1172 19.8945 52.2988 20.6191 52.6621 21.1309C53.0293 21.6426 53.5371 21.8984 54.1855 21.8984C54.8418 21.8984 55.3457 21.6484 55.6973 21.1484C56.0527 20.6484 56.2305 19.918 56.2305 18.957V18.5117ZM65.7285 21.8926C65.4199 22.2949 64.9922 22.5996 64.4453 22.8066C63.8984 23.0137 63.2773 23.1172 62.582 23.1172C61.8672 23.1172 61.2344 22.9551 60.6836 22.6309C60.1328 22.3066 59.707 21.8438 59.4062 21.2422C59.1094 20.6367 58.9551 19.9316 58.9434 19.127V18.459C58.9434 17.1699 59.252 16.1641 59.8691 15.4414C60.4863 14.7148 61.3477 14.3516 62.4531 14.3516C63.4023 14.3516 64.1562 14.5859 64.7148 15.0547C65.2734 15.5234 65.6094 16.1992 65.7227 17.082H64.2695C64.1055 16.0547 63.5098 15.541 62.4824 15.541C61.8184 15.541 61.3125 15.7812 60.9648 16.2617C60.6211 16.7383 60.4434 17.4395 60.4316 18.3652V19.0215C60.4316 19.9434 60.625 20.6602 61.0117 21.1719C61.4023 21.6797 61.9434 21.9336 62.6348 21.9336C63.3926 21.9336 63.9316 21.7617 64.252 21.418V19.748H62.4941V18.623H65.7285V21.8926ZM70.4922 19.7129H68.8398V23H67.3574V14.4688H70.3574C71.3418 14.4688 72.1016 14.6895 72.6367 15.1309C73.1719 15.5723 73.4395 16.2109 73.4395 17.0469C73.4395 17.6172 73.3008 18.0957 73.0234 18.4824C72.75 18.8652 72.3672 19.1602 71.875 19.3672L73.791 22.9238V23H72.2031L70.4922 19.7129ZM68.8398 18.5234H70.3633C70.8633 18.5234 71.2539 18.3984 71.5352 18.1484C71.8164 17.8945 71.957 17.5488 71.957 17.1113C71.957 16.6543 71.8262 16.3008 71.5645 16.0508C71.3066 15.8008 70.9199 15.6719 70.4043 15.6641H68.8398V18.5234ZM79.6211 21.0137H76.3164L75.625 23H74.084L77.3066 14.4688H78.6367L81.8652 23H80.3184L79.6211 21.0137ZM76.7324 19.8184H79.2051L77.9688 16.2793L76.7324 19.8184ZM84.7598 14.4688L87.2207 21.0078L89.6758 14.4688H91.5918V23H90.1152V20.1875L90.2617 16.4258L87.7422 23H86.6816L84.168 16.4316L84.3145 20.1875V23H82.8379V14.4688H84.7598ZM101.113 21.0137H97.8086L97.1172 23H95.5762L98.7988 14.4688H100.129L103.357 23H101.811L101.113 21.0137ZM98.2246 19.8184H100.697L99.4609 16.2793L98.2246 19.8184ZM105.812 19.8301V23H104.33V14.4688H107.594C108.547 14.4688 109.303 14.7168 109.861 15.2129C110.424 15.709 110.705 16.3652 110.705 17.1816C110.705 18.0176 110.43 18.668 109.879 19.1328C109.332 19.5977 108.564 19.8301 107.576 19.8301H105.812ZM105.812 18.6406H107.594C108.121 18.6406 108.523 18.5176 108.801 18.2715C109.078 18.0215 109.217 17.6621 109.217 17.1934C109.217 16.7324 109.076 16.3652 108.795 16.0918C108.514 15.8145 108.127 15.6719 107.635 15.6641H105.812V18.6406ZM113.488 19.8301V23H112.006V14.4688H115.27C116.223 14.4688 116.979 14.7168 117.537 15.2129C118.1 15.709 118.381 16.3652 118.381 17.1816C118.381 18.0176 118.105 18.668 117.555 19.1328C117.008 19.5977 116.24 19.8301 115.252 19.8301H113.488ZM113.488 18.6406H115.27C115.797 18.6406 116.199 18.5176 116.477 18.2715C116.754 18.0215 116.893 17.6621 116.893 17.1934C116.893 16.7324 116.752 16.3652 116.471 16.0918C116.189 15.8145 115.803 15.6719 115.311 15.6641H113.488V18.6406Z" fill="white"/>
</svg>
