<svg width="144" height="36" viewBox="0 0 144 36" fill="none" xmlns="http://www.w3.org/2000/svg">
<rect width="144" height="36" fill="#343A40"/>
<path d="M27.9238 20.8027C27.9238 20.4277 27.791 20.1387 27.5254 19.9355C27.2637 19.7324 26.7891 19.5273 26.1016 19.3203C25.4141 19.1133 24.8672 18.8828 24.4609 18.6289C23.6836 18.1406 23.2949 17.5039 23.2949 16.7188C23.2949 16.0312 23.5742 15.4648 24.1328 15.0195C24.6953 14.5742 25.4238 14.3516 26.3184 14.3516C26.9121 14.3516 27.4414 14.4609 27.9062 14.6797C28.3711 14.8984 28.7363 15.2109 29.002 15.6172C29.2676 16.0195 29.4004 16.4668 29.4004 16.959H27.9238C27.9238 16.5137 27.7832 16.166 27.502 15.916C27.2246 15.6621 26.8262 15.5352 26.3066 15.5352C25.8223 15.5352 25.4453 15.6387 25.1758 15.8457C24.9102 16.0527 24.7773 16.3418 24.7773 16.7129C24.7773 17.0254 24.9219 17.2871 25.2109 17.498C25.5 17.7051 25.9766 17.9082 26.6406 18.1074C27.3047 18.3027 27.8379 18.5273 28.2402 18.7812C28.6426 19.0312 28.9375 19.3203 29.125 19.6484C29.3125 19.9727 29.4062 20.3535 29.4062 20.791C29.4062 21.502 29.1328 22.0684 28.5859 22.4902C28.043 22.9082 27.3047 23.1172 26.3711 23.1172C25.7539 23.1172 25.1855 23.0039 24.666 22.7773C24.1504 22.5469 23.748 22.2305 23.459 21.8281C23.1738 21.4258 23.0312 20.957 23.0312 20.4219H24.5137C24.5137 20.9062 24.6738 21.2812 24.9941 21.5469C25.3145 21.8125 25.7734 21.9453 26.3711 21.9453C26.8867 21.9453 27.2734 21.8418 27.5312 21.6348C27.793 21.4238 27.9238 21.1465 27.9238 20.8027ZM35.4824 21.0137H32.1777L31.4863 23H29.9453L33.168 14.4688H34.498L37.7266 23H36.1797L35.4824 21.0137ZM32.5938 19.8184H35.0664L33.8301 16.2793L32.5938 19.8184ZM40.1816 21.8164H44.0547V23H38.6992V14.4688H40.1816V21.8164ZM50.084 21.0137H46.7793L46.0879 23H44.5469L47.7695 14.4688H49.0996L52.3281 23H50.7812L50.084 21.0137ZM47.1953 19.8184H49.668L48.4316 16.2793L47.1953 19.8184ZM53.3008 23V14.4688H55.8203C56.5742 14.4688 57.2422 14.6367 57.8242 14.9727C58.4102 15.3086 58.8633 15.7852 59.1836 16.4023C59.5039 17.0195 59.6641 17.7266 59.6641 18.5234V18.9512C59.6641 19.7598 59.502 20.4707 59.1777 21.084C58.8574 21.6973 58.3984 22.1699 57.8008 22.502C57.207 22.834 56.5254 23 55.7559 23H53.3008ZM54.7832 15.6641V21.8164H55.75C56.5273 21.8164 57.123 21.5742 57.5371 21.0898C57.9551 20.6016 58.168 19.9023 58.1758 18.9922V18.5176C58.1758 17.5918 57.9746 16.8848 57.5723 16.3965C57.1699 15.9082 56.5859 15.6641 55.8203 15.6641H54.7832ZM63.7656 19.9473H60.6895V18.7988H63.7656V19.9473ZM65.0781 23V14.4688H68.002C68.9668 14.4688 69.7012 14.6621 70.2051 15.0488C70.709 15.4355 70.9609 16.0117 70.9609 16.7773C70.9609 17.168 70.8555 17.5195 70.6445 17.832C70.4336 18.1445 70.125 18.3867 69.7188 18.5586C70.1797 18.6836 70.5352 18.9199 70.7852 19.2676C71.0391 19.6113 71.166 20.0254 71.166 20.5098C71.166 21.3105 70.9082 21.9258 70.3926 22.3555C69.8809 22.7852 69.1465 23 68.1895 23H65.0781ZM66.5605 19.1504V21.8164H68.207C68.6719 21.8164 69.0352 21.7012 69.2969 21.4707C69.5586 21.2402 69.6895 20.9199 69.6895 20.5098C69.6895 19.623 69.2363 19.1699 68.3301 19.1504H66.5605ZM66.5605 18.0605H68.0137C68.4746 18.0605 68.834 17.957 69.0918 17.75C69.3535 17.5391 69.4844 17.2422 69.4844 16.8594C69.4844 16.4375 69.3633 16.1328 69.1211 15.9453C68.8828 15.7578 68.5098 15.6641 68.002 15.6641H66.5605V18.0605ZM78.8887 14.4688V20.1699C78.8887 21.0762 78.5977 21.7949 78.0156 22.3262C77.4375 22.8535 76.666 23.1172 75.7012 23.1172C74.7246 23.1172 73.9492 22.8574 73.375 22.3379C72.8008 21.8145 72.5137 21.0898 72.5137 20.1641V14.4688H73.9902V20.1758C73.9902 20.7461 74.1348 21.1816 74.4238 21.4824C74.7129 21.7832 75.1387 21.9336 75.7012 21.9336C76.8418 21.9336 77.4121 21.332 77.4121 20.1289V14.4688H78.8887ZM81.8711 21.8164H86.4297V23H80.0781V22.0391L84.4902 15.6641H80.1074V14.4688H86.2891V15.4062L81.8711 21.8164ZM89.1016 21.8164H93.6602V23H87.3086V22.0391L91.7207 15.6641H87.3379V14.4688H93.5195V15.4062L89.1016 21.8164ZM102.701 21.0137H99.3965L98.7051 23H97.1641L100.387 14.4688H101.717L104.945 23H103.398L102.701 21.0137ZM99.8125 19.8184H102.285L101.049 16.2793L99.8125 19.8184ZM107.4 19.8301V23H105.918V14.4688H109.182C110.135 14.4688 110.891 14.7168 111.449 15.2129C112.012 15.709 112.293 16.3652 112.293 17.1816C112.293 18.0176 112.018 18.668 111.467 19.1328C110.92 19.5977 110.152 19.8301 109.164 19.8301H107.4ZM107.4 18.6406H109.182C109.709 18.6406 110.111 18.5176 110.389 18.2715C110.666 18.0215 110.805 17.6621 110.805 17.1934C110.805 16.7324 110.664 16.3652 110.383 16.0918C110.102 15.8145 109.715 15.6719 109.223 15.6641H107.4V18.6406ZM115.076 19.8301V23H113.594V14.4688H116.857C117.811 14.4688 118.566 14.7168 119.125 15.2129C119.688 15.709 119.969 16.3652 119.969 17.1816C119.969 18.0176 119.693 18.668 119.143 19.1328C118.596 19.5977 117.828 19.8301 116.84 19.8301H115.076ZM115.076 18.6406H116.857C117.385 18.6406 117.787 18.5176 118.064 18.2715C118.342 18.0215 118.48 17.6621 118.48 17.1934C118.48 16.7324 118.34 16.3652 118.059 16.0918C117.777 15.8145 117.391 15.6719 116.898 15.6641H115.076V18.6406Z" fill="white"/>
</svg>
